<?xml version="1.0" encoding="utf-8"?>
<!-- Generator: Adobe Illustrator 27.5.0, SVG Export Plug-In . SVG Version: 6.00 Build 0)  -->
<svg version="1.1" id="Layer_1" xmlns="http://www.w3.org/2000/svg" xmlns:xlink="http://www.w3.org/1999/xlink" x="0px" y="0px"
	 viewBox="0 0 4000 4000" style="enable-background:new 0 0 4000 4000;" xml:space="preserve">
<g>
	<rect style="fill:#FFFFFF;" width="4000" height="4000"/>
	<g>
		<g>
			<g>
				<path style="fill:#FFD553;" d="M3440.818,2248.278c0-795.74-645.076-1440.818-1440.818-1440.818
					S559.182,1452.538,559.182,2248.278c0,392.844,157.289,748.896,412.239,1008.811h2057.158
					C3283.528,2997.174,3440.818,2641.122,3440.818,2248.278z"/>
			</g>
		</g>
		<g>
			<g>
				<g>
					<path style="fill:#8AC457;" d="M3455.726,2640.088c0,54.403-24.758,103.018-63.663,135.171c-0.128,0-0.193,0.064-0.193,0.064
						c-32.925,27.201-75.945,42.571-122.567,39.677c-90.671-5.594-162.951-81.861-164.109-172.661
						c-0.515-40.706,12.797-78.196,35.561-108.163c22.507-29.645,26.044-68.872,9.517-102.247
						c-11.768-23.922-17.17-51.509-13.954-80.704c7.395-66.428,60.833-119.931,127.261-127.454
						c87.584-9.903,161.922,58.454,161.922,144.11c0,23.729-5.723,46.107-15.819,65.914c-16.398,32.024-12.412,70.8,9.581,99.288
						c18.97,24.565,31.574,54.339,35.304,86.877v0.064C3455.34,2626.584,3455.726,2633.272,3455.726,2640.088z"/>
				</g>
				<g style="opacity:0.3;">
					<path style="fill:#000072;" d="M3455.726,2640.088c0,29.967-7.524,58.197-20.835,82.891c-0.772,1.415-1.543,2.829-2.315,4.18
						c-2.058,3.729-4.309,7.267-6.752,10.803c-1.093,1.607-2.186,3.215-3.344,4.759c-1.029,1.608-2.251,3.151-3.473,4.694
						c-0.964,1.222-1.929,2.444-2.958,3.666c-2.701,3.344-5.531,6.624-8.553,9.71c-0.9,0.965-1.801,1.929-2.765,2.83
						c-1.543,1.672-3.151,3.215-4.823,4.759c-0.579,0.579-1.222,1.157-1.865,1.672c-1.608,1.479-3.28,2.958-5.016,4.373
						c-0.322,0.322-0.643,0.579-0.965,0.836h-0.064c-32.925,27.266-76.01,42.635-122.696,39.741
						c-90.671-5.594-162.951-81.861-164.109-172.661c-0.515-40.706,12.797-78.196,35.561-108.163
						c22.507-29.645,26.044-68.872,9.517-102.247c-11.768-23.922-17.17-51.509-13.954-80.704
						c4.437-39.612,25.208-74.595,55.367-98.002c-7.073,14.404-11.768,30.159-13.568,46.686
						c-3.215,29.195,2.186,56.846,13.954,80.768c16.527,33.375,12.99,72.537-9.517,102.182
						c-22.765,29.967-36.076,67.521-35.562,108.163c0.258,18.07,3.28,35.561,8.746,52.024c0,0.064,0,0.064,0.064,0.129
						c33.247,102.375,268.477,132.92,298.765-23.15C3455.34,2626.584,3455.726,2633.272,3455.726,2640.088z"/>
				</g>
				<g style="opacity:0.55;">
					<path style="fill:#FFFFFF;" d="M3422.005,2735.661c7.91-19.935,12.282-41.734,12.282-64.499
						c0-40.256-13.633-77.424-36.461-107.005c-22.057-28.487-26.044-67.264-9.582-99.288c10.032-19.742,15.755-42.185,15.755-65.914
						c0-34.082-11.768-65.463-31.574-90.221c-21.543,10.16-52.152-15.305-46.365-38.391c-24.693-12.926-53.502-18.906-83.983-15.433
						c-42.635,4.759-79.803,28.552-103.018,62.505c18.52-50.094,64.435-87.456,119.095-93.629
						c87.584-9.903,161.922,58.454,161.922,144.11c0,23.729-5.723,46.107-15.755,65.914c-16.462,32.024-12.475,70.8,9.582,99.288
						c22.829,29.581,36.461,66.686,36.461,107.005C3450.364,2675.342,3439.946,2708.203,3422.005,2735.661z"/>
				</g>
				<g>
					<path style="fill:#000072;" d="M3280.595,2829.576c-4.041,0-8.096-0.122-12.173-0.376
						c-98.271-6.074-176.223-88.081-177.466-186.689c-0.535-42.656,12.771-83.101,38.479-116.958
						c19.138-25.195,22.236-58.647,8.091-87.295c-13.457-27.246-18.767-57.886-15.354-88.594
						c8.101-72.896,66.885-131.782,139.778-140.024c45.374-5.127,90.764,9.229,124.553,39.409
						c33.826,30.215,53.228,73.525,53.228,118.823c0,25.503-5.847,49.858-17.378,72.393c-13.733,26.851-10.52,59.863,8.191,84.106
						c25.779,33.399,39.404,73.404,39.404,115.698c0,52.085-21.768,102.422-59.717,138.101
						C3374.709,2811.564,3329.06,2829.576,3280.595,2829.576z M3280.622,2237.062c-5.117,0-10.276,0.293-15.469,0.879
						c-59.8,6.763-108.027,55.073-114.67,114.868c-2.81,25.293,1.541,50.479,12.583,72.837
						c18.96,38.398,14.766,83.281-10.945,117.134c-21.836,28.755-33.137,63.12-32.683,99.37
						c1.057,83.784,67.271,153.462,150.742,158.623c45.017,2.783,87.839-12.612,120.542-43.354
						c32.72-30.767,50.74-72.437,50.74-117.349c0-35.938-11.572-69.927-33.467-98.296c-25.413-32.925-29.731-77.866-11.001-114.482
						c9.458-18.481,14.25-38.472,14.25-59.419c0-37.197-15.933-72.764-43.716-97.578
						C3343.237,2248.595,3312.829,2237.062,3280.622,2237.062z"/>
				</g>
				<g>
					<path style="fill:#000072;" d="M3280.444,3192.95c-7.866,0-14.243-6.377-14.243-14.243v-600.229
						c0-7.866,6.377-14.243,14.243-14.243s14.243,6.377,14.243,14.243v600.229C3294.687,3186.573,3288.31,3192.95,3280.444,3192.95z
						"/>
				</g>
				<g>
					<path style="fill:#000072;" d="M3280.454,2698.942c-4.224,0-8.406-1.87-11.216-5.454c-4.854-6.187-3.774-15.137,2.415-19.995
						l61.472-48.227c6.187-4.858,15.139-3.779,19.998,2.417c4.854,6.187,3.774,15.137-2.415,19.995l-61.472,48.227
						C3286.628,2697.95,3283.53,2698.942,3280.454,2698.942z"/>
				</g>
				<g>
					<path style="fill:#000072;" d="M3280.454,3019.484c-5.347,0-10.471-3.022-12.898-8.184c-3.347-7.119-0.291-15.601,6.829-18.95
						l58.794-27.646c7.117-3.335,15.601-0.288,18.948,6.831c3.347,7.119,0.291,15.601-6.829,18.95l-58.794,27.646
						C3284.545,3019.049,3282.482,3019.484,3280.454,3019.484z"/>
				</g>
				<g>
					<g>
						<path style="fill:#8AC457;" d="M3433.935,3254.048l-0.064-0.064h-643.251c-18.199-20.192-29.323-46.879-29.323-76.202
							c0-9.389,1.157-18.52,3.344-27.266c0.836-3.408,1.801-6.752,2.958-10.032c1.157-3.537,2.572-7.009,4.18-10.353v-0.064
							c18.006-38.905,57.426-65.913,103.083-65.913c32.989,0,62.762,14.083,83.469,36.526c8.038,8.681,21.993,7.266,27.973-2.894
							c13.44-22.7,38.198-37.876,66.492-37.876c23.922,0,45.271,10.868,59.418,27.909c6.752,8.167,18.649,9.903,26.687,3.087
							c23.086-19.356,52.86-30.996,85.398-30.996c47.522,0,89.256,24.951,112.728,62.505c9.967,16.012,27.909,24.565,46.75,25.401
							c3.28,0.129,6.688,0.515,10.096,1.157c12.218,2.315,23.214,8.231,32.024,16.462v0.064c1.222,1.094,2.379,2.315,3.537,3.537
							c8.746,9.324,14.79,21.221,16.848,34.34c0.386,2.315,0.643,4.63,0.707,6.881
							C3448.018,3226.654,3443.002,3241.894,3433.935,3254.048z"/>
					</g>
					<g style="opacity:0.3;">
						<path style="fill:#000072;" d="M3446.989,3210.899c0.9,16.141-4.115,31.124-13.054,43.149l-0.064-0.064h-643.251
							c-13.826-15.305-23.536-34.339-27.459-55.432c-1.222-6.752-1.865-13.697-1.865-20.771c0-3.666,0.193-7.267,0.578-10.803
							c1.351-2.444,2.765-5.08,4.244-7.717c9.324-16.591,20.321-35.368,20.321-35.368c2.572,46.3,27.587,76.46,91.25,78.646
							c4.952,0.193,10.225,0.193,15.691,0h455.736c41.156-4.051,54.853-20.449,49.323-45.529c0,0,29.452,2.251,37.49,5.466
							c8.038,3.215,19.806,42.892,19.806,46.107C3455.734,3209.291,3452.326,3210.127,3446.989,3210.899z"/>
					</g>
					<g style="opacity:0.55;">
						<path style="fill:#FFFFFF;" d="M3346.8,3133.796c-3.794,3.472-9.003,8.424-13.504,13.183
							c-14.79-19.999-35.432-35.304-59.29-44.306c-8.938,19.099-45.85,10.739-48.744-9.003h-0.964
							c-32.539,0-62.313,11.639-85.398,30.995c-8.038,6.816-19.935,5.08-26.687-3.087c-14.147-17.041-35.497-27.909-59.418-27.909
							c-28.294,0-53.052,15.176-66.492,37.876c-5.98,10.16-19.935,11.575-27.973,2.894c-20.706-22.443-50.48-36.526-83.469-36.526
							c-56.911,0-104.111,41.928-112.342,96.652c-0.836-5.466-1.222-11.061-1.222-16.784c0-62.762,50.866-113.629,113.564-113.629
							c32.989,0,62.762,14.083,83.469,36.526c8.038,8.681,21.993,7.266,27.973-2.894c13.44-22.7,38.198-37.876,66.492-37.876
							c23.922,0,45.271,10.868,59.418,27.909c6.752,8.167,18.649,9.903,26.687,3.087c23.086-19.356,52.86-30.996,85.398-30.996
							c47.522,0,89.256,24.951,112.728,62.505C3339.726,3126.787,3343.006,3130.581,3346.8,3133.796z"/>
					</g>
					<g>
						<path style="fill:#000072;" d="M3433.913,3268.273c-0.452,0-0.901-0.024-1.345-0.064h-641.97
							c-4.033,0-7.878-1.714-10.579-4.707c-21.272-23.604-32.988-54.048-32.988-85.737c0-70.508,57.334-127.871,127.808-127.871
							c35.605,0,69.858,14.995,93.977,41.143c0.972,1.055,2.068,1.162,2.82,1.104c0.728-0.078,1.741-0.42,2.441-1.602
							c16.392-27.685,46.545-44.888,78.696-44.888c27.317,0,52.981,12.071,70.41,33.111c0.999,1.206,2.388,1.973,3.811,2.104
							c1.611,0.093,2.471-0.596,2.759-0.835c26.384-22.168,59.951-34.38,94.524-34.38c51.077,0,97.742,25.884,124.832,69.233
							c6.885,11.021,20.078,18.008,35.3,18.691c4.009,0.176,8.096,0.664,12.136,1.441c32.971,6.362,58.618,32.939,63.831,66.138l0,0
							c3.462,22.07-1.892,43.887-15.078,61.43c-2.478,3.301-6.267,5.362-10.381,5.654
							C3434.58,3268.258,3434.245,3268.273,3433.913,3268.273z M2797.189,3239.723h629.092c5.737-10.205,7.847-22.1,5.955-34.156
							c-3.303-21.04-20.195-38.555-41.077-42.583c-2.676-0.513-5.378-0.835-8.018-0.952c-24.595-1.104-46.343-13.086-58.191-32.056
							c-21.848-34.966-59.485-55.84-100.674-55.84c-27.878,0-54.939,9.839-76.196,27.7c-6.602,5.547-14.988,8.174-23.645,7.397
							c-8.928-0.806-17.38-5.288-23.188-12.3c-12-14.492-29.668-22.798-48.474-22.798c-22.134,0-42.896,11.846-54.185,30.913
							c-5.173,8.735-13.906,14.355-23.965,15.415c-10.093,1.064-19.836-2.622-26.748-10.117
							c-18.74-20.317-45.361-31.968-73.037-31.968c-54.766,0-99.321,44.585-99.321,99.385
							C2775.517,3200.338,2783.171,3222.111,2797.189,3239.723z"/>
					</g>
				</g>
			</g>
			<g>
				<g>
					<path style="fill:#8AC457;" d="M544.274,2640.088c0,54.403,24.758,103.018,63.663,135.171c0.128,0,0.193,0.064,0.193,0.064
						c32.925,27.201,75.945,42.571,122.567,39.677c90.672-5.594,162.951-81.861,164.109-172.661
						c0.515-40.706-12.797-78.196-35.561-108.163c-22.507-29.645-26.044-68.872-9.517-102.247
						c11.768-23.922,17.17-51.509,13.954-80.704c-7.395-66.428-60.833-119.931-127.261-127.454
						c-87.585-9.903-161.922,58.454-161.922,144.11c0,23.729,5.723,46.107,15.819,65.914c16.398,32.024,12.411,70.8-9.582,99.288
						c-18.97,24.565-31.574,54.339-35.304,86.877v0.064C544.66,2626.584,544.274,2633.272,544.274,2640.088z"/>
				</g>
				<g style="opacity:0.3;">
					<path style="fill:#000072;" d="M544.274,2640.088c0,29.967,7.524,58.197,20.835,82.891c0.772,1.415,1.543,2.829,2.315,4.18
						c2.058,3.729,4.309,7.267,6.752,10.803c1.093,1.607,2.186,3.215,3.344,4.759c1.029,1.608,2.251,3.151,3.473,4.694
						c0.964,1.222,1.929,2.444,2.958,3.666c2.701,3.344,5.531,6.624,8.553,9.71c0.9,0.965,1.801,1.929,2.765,2.83
						c1.543,1.672,3.151,3.215,4.823,4.759c0.579,0.579,1.222,1.157,1.865,1.672c1.608,1.479,3.28,2.958,5.016,4.373
						c0.321,0.322,0.643,0.579,0.965,0.836h0.064c32.925,27.266,76.01,42.635,122.696,39.741
						c90.672-5.594,162.951-81.861,164.109-172.661c0.515-40.706-12.797-78.196-35.561-108.163
						c-22.507-29.645-26.044-68.872-9.517-102.247c11.768-23.922,17.17-51.509,13.954-80.704
						c-4.437-39.612-25.208-74.595-55.367-98.002c7.073,14.404,11.768,30.159,13.569,46.686
						c3.215,29.195-2.186,56.846-13.954,80.768c-16.527,33.375-12.99,72.537,9.517,102.182
						c22.765,29.967,36.076,67.521,35.561,108.163c-0.257,18.07-3.28,35.561-8.745,52.024c0,0.064,0,0.064-0.064,0.129
						c-33.246,102.375-268.477,132.92-298.765-23.15C544.66,2626.584,544.274,2633.272,544.274,2640.088z"/>
				</g>
				<g style="opacity:0.55;">
					<path style="fill:#FFFFFF;" d="M577.995,2735.661c-7.91-19.935-12.283-41.734-12.283-64.499
						c0-40.256,13.633-77.424,36.461-107.005c22.057-28.487,26.044-67.264,9.582-99.288c-10.032-19.742-15.755-42.185-15.755-65.914
						c0-34.082,11.768-65.463,31.574-90.221c21.543,10.16,52.152-15.305,46.365-38.391c24.693-12.926,53.503-18.906,83.983-15.433
						c42.635,4.759,79.804,28.552,103.018,62.505c-18.52-50.094-64.435-87.456-119.095-93.629
						c-87.585-9.903-161.922,58.454-161.922,144.11c0,23.729,5.723,46.107,15.755,65.914c16.462,32.024,12.475,70.8-9.582,99.288
						c-22.828,29.581-36.461,66.686-36.461,107.005C549.636,2675.342,560.054,2708.203,577.995,2735.661z"/>
				</g>
				<g>
					<path style="fill:#000072;" d="M719.405,2829.576c-48.469,0-94.111-18.008-129.636-51.406
						c-37.95-35.679-59.716-86.016-59.716-138.101c0-42.295,13.625-82.3,39.402-115.698c18.711-24.243,21.926-57.26,8.19-84.111
						c-11.528-22.534-17.374-46.89-17.374-72.388c0-45.298,19.401-88.608,53.226-118.823
						c33.788-30.181,79.185-44.531,124.553-39.409c72.892,8.242,131.677,67.129,139.777,140.024
						c3.412,30.713-1.897,61.348-15.354,88.598c-14.146,28.643-11.045,62.095,8.09,87.29c25.71,33.857,39.017,74.302,38.48,116.958
						c-1.241,98.608-79.193,180.615-177.465,186.689C727.504,2829.454,723.443,2829.576,719.405,2829.576z M719.377,2237.062
						c-32.208,0-62.611,11.533-86.906,33.232c-27.783,24.814-43.717,60.381-43.717,97.578c0,20.947,4.794,40.938,14.249,59.419
						c18.733,36.616,14.415,81.553-11,114.482c-21.895,28.369-33.467,62.358-33.467,98.296c0,44.912,18.02,86.582,50.741,117.349
						c32.699,30.737,75.501,46.118,120.543,43.354c83.471-5.161,149.684-74.839,150.74-158.623
						c0.455-36.25-10.846-70.61-32.683-99.37c-25.709-33.852-29.904-78.735-10.945-117.129
						c11.042-22.363,15.394-47.549,12.583-72.842c-6.644-59.795-54.869-108.105-114.668-114.868
						C729.658,2237.354,724.494,2237.062,719.377,2237.062z"/>
				</g>
				<g>
					<path style="fill:#000072;" d="M719.555,3192.95c-7.866,0-14.242-6.377-14.242-14.243v-600.229
						c0-7.866,6.376-14.243,14.242-14.243c7.866,0,14.242,6.377,14.242,14.243v600.229
						C733.797,3186.573,727.421,3192.95,719.555,3192.95z"/>
				</g>
				<g>
					<path style="fill:#000072;" d="M719.545,2698.942c-3.076,0-6.173-0.991-8.781-3.037l-61.473-48.227
						c-6.188-4.858-7.269-13.809-2.413-19.995c4.855-6.191,13.81-7.271,19.995-2.417l61.473,48.227
						c6.188,4.858,7.269,13.809,2.413,19.995C727.951,2697.071,723.769,2698.942,719.545,2698.942z"/>
				</g>
				<g>
					<path style="fill:#000072;" d="M719.545,3019.484c-2.03,0-4.092-0.435-6.051-1.357l-58.792-27.647
						c-7.118-3.344-10.174-11.826-6.827-18.945c3.346-7.124,11.83-10.18,18.949-6.826l58.792,27.646
						c7.118,3.345,10.175,11.826,6.827,18.946C730.018,3016.461,724.892,3019.484,719.545,3019.484z"/>
				</g>
				<g>
					<g>
						<path style="fill:#8AC457;" d="M566.065,3254.048l0.064-0.064h643.251c18.199-20.192,29.323-46.879,29.323-76.202
							c0-9.389-1.157-18.52-3.344-27.266c-0.836-3.408-1.801-6.752-2.958-10.032c-1.158-3.537-2.572-7.009-4.18-10.353v-0.064
							c-18.006-38.905-57.425-65.913-103.082-65.913c-32.989,0-62.763,14.083-83.469,36.526c-8.038,8.681-21.993,7.266-27.973-2.894
							c-13.44-22.7-38.198-37.876-66.492-37.876c-23.922,0-45.272,10.868-59.419,27.909c-6.753,8.167-18.649,9.903-26.687,3.087
							c-23.086-19.356-52.86-30.996-85.398-30.996c-47.522,0-89.256,24.951-112.728,62.505
							c-9.967,16.012-27.909,24.565-46.751,25.401c-3.28,0.129-6.688,0.515-10.096,1.157c-12.218,2.315-23.214,8.231-32.024,16.462
							v0.064c-1.222,1.094-2.379,2.315-3.537,3.537c-8.745,9.324-14.79,21.221-16.848,34.34c-0.386,2.315-0.643,4.63-0.707,6.881
							C551.982,3226.654,556.998,3241.894,566.065,3254.048z"/>
					</g>
					<g style="opacity:0.3;">
						<path style="fill:#000072;" d="M553.011,3210.899c-0.9,16.141,4.115,31.124,13.054,43.149l0.064-0.064h643.251
							c13.826-15.305,23.536-34.339,27.459-55.432c1.222-6.752,1.865-13.697,1.865-20.771c0-3.666-0.193-7.267-0.578-10.803
							c-1.351-2.444-2.765-5.08-4.244-7.717c-9.324-16.591-20.321-35.368-20.321-35.368c-2.572,46.3-27.587,76.46-91.25,78.646
							c-4.952,0.193-10.225,0.193-15.691,0H650.885c-41.156-4.051-54.853-20.449-49.323-45.529c0,0-29.452,2.251-37.49,5.466
							c-8.038,3.215-19.806,42.892-19.806,46.107C544.266,3209.291,547.674,3210.127,553.011,3210.899z"/>
					</g>
					<g style="opacity:0.55;">
						<path style="fill:#FFFFFF;" d="M653.2,3133.796c3.794,3.472,9.003,8.424,13.504,13.183
							c14.79-19.999,35.432-35.304,59.29-44.306c8.939,19.099,45.85,10.739,48.744-9.003h0.964
							c32.539,0,62.312,11.639,85.398,30.995c8.038,6.816,19.935,5.08,26.687-3.087c14.147-17.041,35.497-27.909,59.419-27.909
							c28.294,0,53.052,15.176,66.492,37.876c5.98,10.16,19.935,11.575,27.973,2.894c20.706-22.443,50.48-36.526,83.469-36.526
							c56.91,0,104.111,41.928,112.342,96.652c0.836-5.466,1.222-11.061,1.222-16.784c0-62.762-50.866-113.629-113.564-113.629
							c-32.989,0-62.763,14.083-83.469,36.526c-8.038,8.681-21.993,7.266-27.973-2.894c-13.44-22.7-38.198-37.876-66.492-37.876
							c-23.922,0-45.272,10.868-59.419,27.909c-6.753,8.167-18.649,9.903-26.687,3.087c-23.086-19.356-52.86-30.996-85.398-30.996
							c-47.522,0-89.256,24.951-112.728,62.505C660.274,3126.787,656.994,3130.581,653.2,3133.796z"/>
					</g>
					<g>
						<path style="fill:#000072;" d="M566.104,3268.238c-0.328,0-0.658-0.01-0.988-0.034c-4.116-0.288-7.936-2.319-10.415-5.62
							c-13.185-17.544-18.54-39.36-15.077-61.43l0,0c5.21-33.198,30.857-59.775,63.82-66.138c4.052-0.776,8.14-1.265,12.158-1.441
							c15.209-0.683,28.404-7.671,35.288-18.686c27.089-43.355,73.756-69.239,124.834-69.239c34.57,0,68.137,12.212,94.52,34.38
							c0.287,0.239,1.152,0.928,2.763,0.835c1.422-0.132,2.811-0.899,3.812-2.104c17.428-21.04,43.092-33.111,70.408-33.111
							c32.15,0,62.305,17.202,78.696,44.888c0.699,1.182,1.714,1.524,2.441,1.602c0.742,0.054,1.849-0.054,2.821-1.104
							c24.115-26.143,58.368-41.143,93.976-41.143c70.472,0,127.806,57.363,127.806,127.871c0,31.689-11.715,62.134-32.987,85.737
							c-2.7,2.993-6.545,4.707-10.579,4.707H567.042C566.731,3268.229,566.418,3268.238,566.104,3268.238z M573.718,3239.723
							h629.094c14.017-17.612,21.672-39.385,21.672-61.958c0-54.8-44.556-99.385-99.323-99.385
							c-27.677,0-54.299,11.651-73.038,31.968c-6.913,7.495-16.668,11.181-26.752,10.117c-10.056-1.065-18.789-6.68-23.96-15.415
							c-11.288-19.067-32.051-30.913-54.185-30.913c-18.805,0-36.472,8.305-48.473,22.798c-5.809,7.007-14.26,11.489-23.187,12.295
							c-8.661,0.801-17.045-1.846-23.648-7.392c-21.258-17.862-48.318-27.7-76.195-27.7c-41.191,0-78.828,20.874-100.677,55.845
							c-11.847,18.965-33.595,30.947-58.177,32.051c-2.65,0.117-5.352,0.439-8.037,0.952c-20.874,4.028-37.766,21.543-41.068,42.583
							l0,0C565.874,3217.623,567.983,3229.518,573.718,3239.723z"/>
					</g>
				</g>
			</g>
		</g>
		<g>
			<g>
				<rect x="943.789" y="2602.715" style="fill:#12B3F9;" width="2112.566" height="582.356"/>
			</g>
			<g>
				<rect x="943.789" y="2602.715" style="fill:#12B3F9;" width="2112.566" height="582.356"/>
			</g>
			<g style="opacity:0.3;">
				<rect x="943.789" y="2602.715" style="fill:#000072;" width="2112.566" height="84.503"/>
			</g>
			<g>
				<path style="fill:#000072;" d="M3056.374,3199.323H943.807c-7.865,0-14.242-6.377-14.242-14.243v-582.378
					c0-7.866,6.377-14.243,14.242-14.243h2112.567c7.866,0,14.243,6.377,14.243,14.243v582.378
					C3070.617,3192.946,3064.24,3199.323,3056.374,3199.323z M958.049,3170.836h2084.082v-553.892H958.049V3170.836z"/>
			</g>
			<g>
				<path style="fill:#FF4516;" d="M3095.711,2540.999H904.291l29.671-81.322l127.846-350.354
					c9.922-27.25,35.842-45.385,64.849-45.385h1746.689c29.007,0,54.879,18.135,64.849,45.385L3095.711,2540.999z"/>
				<path style="fill:#000072;" d="M3099.104,2543.37H900.897l158.68-434.863c10.226-28.076,37.183-46.943,67.079-46.943h1746.688
					c29.849,0,56.804,18.862,67.078,46.943L3099.104,2543.37z M907.683,2538.624h2184.634l-156.353-428.487
					c-9.59-26.216-34.756-43.828-62.62-43.828H1126.656c-27.909,0-53.073,17.612-62.618,43.823L907.683,2538.624z"/>
			</g>
			<g style="opacity:0.3;">
				<path style="fill:#000072;" d="M3095.711,2540.999H904.291l29.671-81.322c1111.353,15.144,1879.472-71.875,2004.232-350.354
					L3095.711,2540.999z"/>
			</g>
			<g style="opacity:0.55;">
				<path style="fill:#FFFFFF;" d="M3105.196,2545.747h-9.922l-147.595-404.521c-9.922-27.25-35.843-45.385-64.849-45.385H1136.189
					c-29.006,0-54.927,18.135-64.896,45.385l-147.595,404.521h-9.922l157.517-431.676c9.969-27.25,35.89-45.385,64.896-45.385
					h1746.642c29.006,0,54.927,18.135,64.849,45.385L3105.196,2545.747z"/>
			</g>
			<g>
				<path style="fill:#000072;" d="M3095.7,2555.26c-5.815,0-11.274-3.589-13.381-9.365l-157.512-431.709
					c-7.861-21.548-28.55-36.021-51.482-36.021H1126.66c-22.933,0-43.623,14.472-51.484,36.021l-157.512,431.709
					c-2.696,7.388-10.874,11.206-18.26,8.496c-7.389-2.695-11.194-10.869-8.497-18.262l157.512-431.709
					c11.946-32.739,43.389-54.741,78.242-54.741h1746.665c34.854,0,66.296,22.002,78.24,54.741l157.512,431.709
					c2.695,7.392-1.108,15.566-8.496,18.262C3098.969,2554.977,3097.319,2555.26,3095.7,2555.26z"/>
			</g>
			<g>
				<path style="fill:#FFFFFF;" d="M3120.682,2625.514H879.301c-9.875,0-17.88-8.005-17.88-17.88v-48.742
					c0-9.875,8.005-17.88,17.88-17.88h2241.381c9.875,0,17.88,8.005,17.88,17.88v48.742
					C3138.562,2617.509,3130.557,2625.514,3120.682,2625.514z"/>
			</g>
			<g style="opacity:0.55;">
				<path style="fill:#FFFFFF;" d="M3138.579,2563.644v24.117c0-9.875-8.023-17.85-17.897-17.85H879.32
					c-9.874,0-17.898,7.976-17.898,17.85v-24.117c0-9.875,8.023-17.897,17.898-17.897h2241.362
					C3130.555,2545.747,3138.579,2553.77,3138.579,2563.644z"/>
			</g>
			<g>
				<path style="fill:#000072;" d="M3120.683,2639.757H879.301c-17.712,0-32.122-14.409-32.122-32.124v-48.74
					c0-17.715,14.409-32.124,32.122-32.124h2241.382c17.712,0,32.119,14.409,32.119,32.124v48.74
					C3152.802,2625.348,3138.396,2639.757,3120.683,2639.757z M879.301,2555.255c-2.006,0-3.638,1.631-3.638,3.638v48.74
					c0,2.007,1.632,3.638,3.638,3.638h2241.382c2.004,0,3.635-1.631,3.635-3.638v-48.74c0-2.007-1.631-3.638-3.635-3.638H879.301z"
					/>
			</g>
			<g>
				<path style="fill:#FFFFFF;" d="M3120.682,3254.048H879.301c-9.875,0-17.88-8.005-17.88-17.88v-48.742
					c0-9.875,8.005-17.88,17.88-17.88h2241.381c9.875,0,17.88,8.005,17.88,17.88v48.742
					C3138.562,3246.043,3130.557,3254.048,3120.682,3254.048z"/>
			</g>
			<g style="opacity:0.55;">
				<path style="fill:#FFFFFF;" d="M3138.579,3187.431v24.117c0-9.875-8.023-17.85-17.897-17.85H879.32
					c-9.874,0-17.898,7.975-17.898,17.85v-24.117c0-9.875,8.023-17.898,17.898-17.898h2241.362
					C3130.555,3169.533,3138.579,3177.556,3138.579,3187.431z"/>
			</g>
			<g>
				<path style="fill:#000072;" d="M3120.683,3268.292H879.301c-17.712,0-32.122-14.409-32.122-32.124v-48.74
					c0-17.715,14.409-32.124,32.122-32.124h2241.382c17.712,0,32.119,14.409,32.119,32.124v48.74
					C3152.802,3253.883,3138.396,3268.292,3120.683,3268.292z M879.301,3183.79c-2.006,0-3.638,1.631-3.638,3.638v48.74
					c0,2.007,1.632,3.638,3.638,3.638h2241.382c2.004,0,3.635-1.631,3.635-3.638v-48.74c0-2.007-1.631-3.638-3.635-3.638H879.301z"
					/>
			</g>
			<g>
				<g>
					<polygon style="fill:#12B3F9;" points="2255.488,1930.207 2255.488,2486.452 1729.199,2486.452 1729.199,1930.207 
						1950.377,1788.641 1996.758,1758.922 1999.892,1756.929 2002.787,1758.922 					"/>
				</g>
				<g>
					<path style="fill:#40A3DB;" d="M1993.578,1948.729L1993.578,1948.729c-56.371,0-102.068,45.697-102.068,102.068v94.947h204.135
						v-94.947C2095.646,1994.426,2049.948,1948.729,1993.578,1948.729z"/>
					<path style="fill:#000072;" d="M2098.018,2148.116h-208.882v-97.319c0-57.593,46.852-104.443,104.441-104.443h0.001
						c57.589,0,104.44,46.851,104.44,104.443V2148.116z M1893.885,2143.37h199.387v-92.573c0-54.971-44.723-99.697-99.694-99.697
						c-54.972,0-99.694,44.726-99.694,99.697V2143.37z"/>
				</g>
				<g>
					<path style="fill:#000072;" d="M1993.578,1948.729L1993.578,1948.729c-56.371,0-102.068,45.697-102.068,102.068v94.947h204.135
						v-94.947C2095.646,1994.426,2049.948,1948.729,1993.578,1948.729z"/>
				</g>
				<g>
					<path style="fill:#FFB031;" d="M2009.719,2082.414c0,2.896-0.712,5.602-1.947,7.975c-2.896,5.555-8.735,9.353-15.429,9.353
						c-6.693,0-12.485-3.798-15.381-9.353c-1.234-2.374-1.946-5.08-1.946-7.975H2009.719z"/>
				</g>
				<g>
					<path style="fill:#99A9B5;" d="M2098.02,2196.382h-215.213c-13.983,0-25.319-11.336-25.319-25.319l0,0
						c0-13.983,11.336-25.319,25.319-25.319h215.213c13.983,0,25.319,11.336,25.319,25.319l0,0
						C2123.339,2185.046,2112.003,2196.382,2098.02,2196.382z"/>
					<path style="fill:#000072;" d="M2098.02,2198.756h-215.212c-15.27,0-27.693-12.422-27.693-27.695
						c0-15.269,12.423-27.69,27.693-27.69h215.212c15.27,0,27.693,12.422,27.693,27.69
						C2125.712,2186.334,2113.289,2198.756,2098.02,2198.756z M1882.807,2148.116c-12.653,0-22.947,10.293-22.947,22.944
						c0,12.656,10.294,22.949,22.947,22.949h215.212c12.651,0,22.944-10.293,22.944-22.949c0-12.652-10.293-22.944-22.944-22.944
						H1882.807z"/>
				</g>
				<g style="opacity:0.55;">
					<path style="fill:#FFFFFF;" d="M2123.323,2171.047c0,3.371-0.665,6.599-1.852,9.542c-3.703-9.305-12.818-15.856-23.452-15.856
						h-215.197c-6.978,0-13.34,2.848-17.944,7.406c-2.374,2.374-4.273,5.269-5.555,8.45c-1.187-2.943-1.851-6.171-1.851-9.542
						c0-6.978,2.848-13.292,7.406-17.897c4.605-4.558,10.966-7.406,17.944-7.406h215.197
						C2112.024,2145.744,2123.323,2157.09,2123.323,2171.047z"/>
				</g>
				<g>
					<path style="fill:#000072;" d="M2098.02,2208.253h-215.212c-20.505,0-37.189-16.685-37.189-37.192
						c0-20.503,16.683-37.188,37.189-37.188h215.212c20.505,0,37.188,16.685,37.188,37.188
						C2135.207,2191.569,2118.525,2208.253,2098.02,2208.253z M1882.807,2157.613c-7.417,0-13.451,6.031-13.451,13.448
						s6.034,13.452,13.451,13.452h215.212c7.417,0,13.45-6.035,13.45-13.452s-6.033-13.448-13.45-13.448H1882.807z"/>
				</g>
				<g style="opacity:0.55;">
					<path style="fill:#000072;" d="M2009.719,2082.414c0,2.896-0.712,5.602-1.947,7.975h-30.81
						c-1.234-2.374-1.946-5.08-1.946-7.975H2009.719z"/>
				</g>
				<g style="opacity:0.3;">
					<g>
						<path style="fill:#000072;" d="M2255.488,1930.207v95.469l-245.864-166.537c-5.887-3.988-13.577-3.988-19.464,0
							l-260.961,176.744v-97.416l221.178-149.826l39.783-26.965c2.041-1.377,4.272-2.279,6.598-2.754
							c1.995-0.332,4.036-0.38,6.029,0L2255.488,1930.207z"/>
					</g>
				</g>
				<g>
					<rect x="1984.796" y="1948.871" style="fill:#FFFFFF;" width="15.097" height="63.139"/>
					<path style="fill:#000072;" d="M2002.266,2014.386h-19.845V1946.5h19.845V2014.386z M1987.17,2009.64h10.348v-58.394h-10.348
						V2009.64z"/>
				</g>
				<g>
					<path style="fill:#FFB031;" d="M2050.166,2069.501c0,4.035-1.614,7.69-4.272,10.349c-2.659,2.658-6.362,4.272-10.396,4.272
						h-83.839c-8.118,0-14.668-6.551-14.668-14.622c0-4.083,1.613-7.738,4.272-10.397c2.659-2.611,6.314-4.273,10.349-4.273v-15.714
						c0-22.502,18.23-40.732,40.733-40.732s40.78,18.23,40.78,40.732v15.714h2.374
						C2043.615,2054.832,2050.166,2061.383,2050.166,2069.501z"/>
				</g>
				<g style="opacity:0.55;">
					<path style="fill:#000072;" d="M2050.166,2069.501c0,4.035-1.614,7.69-4.272,10.349c-2.659,2.658-6.362,4.272-10.396,4.272
						h-6.742c4.036,0,7.739-1.614,10.397-4.272c2.658-2.659,4.273-6.314,4.273-10.349c0-8.118-6.551-14.67-14.67-14.67h-2.374
						v-15.714c0-21.363-16.473-38.881-37.409-40.59c1.092-0.095,2.231-0.143,3.37-0.143c22.502,0,40.78,18.23,40.78,40.732v15.714
						h2.374C2043.615,2054.832,2050.166,2061.383,2050.166,2069.501z"/>
				</g>
				<g style="opacity:0.55;">
					<path style="fill:#FFFFFF;" d="M2026.667,2017.138c-7.453-8.593-18.467-14.005-30.763-14.005
						c-22.502,0-40.732,18.23-40.732,40.732v15.714c-4.035,0-7.69,1.662-10.349,4.273c-2.659,2.658-4.272,6.314-4.272,10.397
						c0,2.231,0.521,4.32,1.376,6.219c-3.038-2.706-4.937-6.599-4.937-10.966c0-4.083,1.613-7.738,4.272-10.397
						c2.659-2.611,6.314-4.273,10.349-4.273v-15.714c0-22.502,18.23-40.732,40.733-40.732
						C2006.728,1998.386,2019.403,2005.839,2026.667,2017.138z"/>
				</g>
				<g>
					<path style="fill:#000072;" d="M2095.645,2157.613h-204.135c-6.555,0-11.869-5.317-11.869-11.87v-94.946
						c0-62.827,51.112-113.941,113.936-113.941h0.001c62.823,0,113.936,51.113,113.936,113.941v94.946
						C2107.514,2152.296,2102.2,2157.613,2095.645,2157.613z M1903.38,2133.873h180.397v-83.076c0-49.736-40.463-90.2-90.198-90.2
						c-49.736,0-90.199,40.464-90.199,90.2V2133.873z"/>
				</g>
				<g>
					<polygon style="fill:#000072;" points="2037.979,2055.426 1951.611,2050.677 2037.979,2045.931 					"/>
				</g>
				<g style="opacity:0.55;">
					<path style="fill:#000072;" d="M1999.892,1950.58v24.781c-4.937-1.709-9.97-1.424-15.097,0.617v-26.965
						C1988.973,1949.109,1994.907,1949.868,1999.892,1950.58z"/>
				</g>
				<g style="opacity:0.35;">
					<path style="fill:#FFFFFF;" d="M1983.966,2019.328c2.424,2.286-0.825,5.921-5.097,10.451
						c-4.272,4.531-7.949,8.241-10.373,5.955c-2.424-2.286-0.926-7.812,3.346-12.342
						C1976.113,2018.861,1981.542,2017.042,1983.966,2019.328z"/>
				</g>
				<g>
					<path style="fill:#000072;" d="M2255.468,2500.709h-526.249c-7.865,0-14.242-6.377-14.242-14.243v-556.26
						c0-4.854,2.474-9.375,6.564-11.997l270.673-173.276c4.794-3.066,10.958-2.988,15.67,0.21l255.576,173.276
						c3.91,2.651,6.251,7.065,6.251,11.787v556.26C2269.711,2494.332,2263.334,2500.709,2255.468,2500.709z M1743.462,2472.223
						h497.765v-534.468l-241.559-163.77l-256.206,164.014V2472.223z"/>
				</g>
				<g>
					<g>
						<path style="fill:#FFFFFF;" d="M2288.584,1998.747l-282.301-191.241c-5.891-3.991-13.618-3.991-19.509,0l-282.301,191.241
							c-7.952,5.387-18.765,3.308-24.153-4.644l-25.757-38.018c-5.388-7.952-3.308-18.766,4.644-24.154l327.567-221.904
							c5.891-3.99,13.618-3.99,19.509,0l327.567,221.904c7.952,5.387,10.032,16.201,4.644,24.154l-25.757,38.018
							C2307.35,2002.054,2296.537,2004.134,2288.584,1998.747z"/>
					</g>
				</g>
				<g style="opacity:0.55;">
					<g>
						<path style="fill:#FFFFFF;" d="M2341.843,1953.136l-5.697,8.355l-326.522-221.178c-5.887-4.035-13.577-4.035-19.464,0
							l-326.522,221.178l-5.697-8.355c-5.413-7.975-3.323-18.799,4.652-24.164l327.567-221.891c5.887-4.035,13.577-4.035,19.464,0
							l327.566,221.891C2345.166,1934.337,2347.255,1945.161,2341.843,1953.136z"/>
					</g>
				</g>
				<g>
					<g>
						<path style="fill:#000072;" d="M1698.148,2013.024c-2.004,0-4.026-0.19-6.039-0.576c-8.297-1.597-15.477-6.328-20.216-13.325
							l-25.757-38.018c-4.739-6.992-6.471-15.415-4.875-23.716c1.597-8.296,6.328-15.479,13.325-20.215l327.563-221.904
							c10.778-7.31,24.709-7.305,35.49,0.005l327.563,221.899c6.995,4.736,11.726,11.919,13.323,20.215
							c1.594,8.301-0.137,16.724-4.878,23.721l-25.754,38.013c-4.741,6.997-11.921,11.729-20.217,13.325
							c-8.308,1.592-16.726-0.137-23.718-4.883l-282.299-191.235c-1.073-0.723-2.462-0.723-3.535,0l-282.299,191.24
							C1710.528,2011.158,1704.411,2013.024,1698.148,2013.024z M1999.893,1787.272c6.176,0,12.351,1.826,17.739,5.474
							l282.303,191.24l0.002,0.005c0.889,0.606,1.768,0.591,2.358,0.483c0.583-0.112,1.406-0.435,2.012-1.328l25.757-38.018
							c0.605-0.894,0.598-1.777,0.486-2.358c-0.112-0.586-0.432-1.406-1.323-2.012l-327.57-221.904
							c-1.074-0.733-2.46-0.728-3.529-0.005l-327.57,221.909c-0.894,0.605-1.215,1.426-1.327,2.012
							c-0.112,0.581-0.12,1.465,0.483,2.358l25.758,38.018c0.606,0.893,1.429,1.216,2.014,1.328c0.58,0.107,1.464,0.122,2.356-0.483
							l282.305-191.245C1987.539,1789.098,1993.717,1787.272,1999.893,1787.272z"/>
					</g>
				</g>
				<g>
					<polygon style="fill:#12B3F9;" points="2420.839,2633.62 2420.839,3168.455 1578.945,3168.455 1578.945,2633.62 
						1999.892,2351.913 					"/>
				</g>
				<g>
					<path style="fill:#000072;" d="M2420.822,3182.716h-841.86c-7.866,0-14.242-6.377-14.242-14.243v-534.868
						c0-4.751,2.371-9.194,6.322-11.836l420.929-281.675c4.795-3.213,11.047-3.213,15.842,0l420.929,281.675
						c3.95,2.642,6.323,7.085,6.323,11.836v534.868C2435.065,3176.339,2428.688,3182.716,2420.822,3182.716z M1593.204,3154.229
						h813.375v-513.017l-406.687-272.144l-406.688,272.144V3154.229z"/>
				</g>
				<g style="opacity:0.3;">
					<g>
						<path style="fill:#000072;" d="M2420.839,2633.62v77.429l-411.215-278.526c-5.887-3.988-13.577-3.988-19.464,0
							l-411.215,278.526v-77.429l420.947-281.707L2420.839,2633.62z"/>
					</g>
				</g>
				<g>
					<rect x="1509.334" y="3168.471" style="fill:#FFFFFF;" width="981.117" height="85.452"/>
				</g>
				<g style="opacity:0.55;">
					<rect x="1509.349" y="3173.994" style="fill:#FFFFFF;" width="981.085" height="22.17"/>
				</g>
				<g>
					<path style="fill:#FFB031;" d="M2195.008,2742.54h-390.231c-22.679,0-41.065,18.385-41.065,41.065v384.867h472.36v-384.867
						C2236.073,2760.925,2217.687,2742.54,2195.008,2742.54z"/>
				</g>
				<g style="opacity:0.55;">
					<path style="fill:#FFFFFF;" d="M2231.135,2764.868c-5.222-2.421-11.014-3.75-17.138-3.75h-390.231
						c-22.692,0-41.064,18.42-41.064,41.064v364.691h-20.176v-384.867c0-22.645,18.372-41.065,41.064-41.065h390.231
						C2210.389,2740.941,2224.631,2750.769,2231.135,2764.868z"/>
				</g>
				<g>
					<rect x="1999.892" y="2790.013" style="fill:#FF8A30;" width="188.707" height="378.458"/>
					<path style="fill:#000072;" d="M2190.974,3170.846h-193.456v-383.208h193.456V3170.846z M2002.266,3166.1h183.959v-373.716
						h-183.959V3166.1z"/>
				</g>
				<g>
					<rect x="1811.186" y="2790.013" style="fill:#FF8A30;" width="188.707" height="378.458"/>
					<path style="fill:#000072;" d="M2002.266,3170.846h-193.455v-383.208h193.455V3170.846z M1813.56,3166.1h183.958v-373.716
						H1813.56V3166.1z"/>
				</g>
				<g>
					<path style="fill:#000072;" d="M2490.451,3268.165h-981.117c-7.865,0-14.242-6.377-14.242-14.243v-85.449
						c0-7.866,6.377-14.243,14.242-14.243h981.117c7.866,0,14.243,6.377,14.243,14.243v85.449
						C2504.694,3261.788,2498.317,3268.165,2490.451,3268.165z M1523.576,3239.679h952.632v-56.963h-952.632V3239.679z"/>
				</g>
				<g>
					<path style="fill:#000072;" d="M2236.073,3180.343h-472.361c-6.555,0-11.869-5.318-11.869-11.87v-384.868
						c0-29.189,23.746-52.934,52.935-52.934h390.231c29.187,0,52.933,23.745,52.933,52.934v384.868
						C2247.941,3175.025,2242.628,3180.343,2236.073,3180.343z M1775.581,3156.603h448.623v-372.998
						c0-16.098-13.097-29.194-29.196-29.194h-390.231c-16.1,0-29.197,13.096-29.197,29.194V3156.603z"/>
				</g>
				<g>
					<path style="fill:#000072;" d="M2188.599,3177.97h-377.413c-5.244,0-9.495-4.253-9.495-9.497v-378.462
						c0-5.244,4.25-9.497,9.495-9.497h377.413c5.244,0,9.495,4.253,9.495,9.497v378.462
						C2198.094,3173.717,2193.844,3177.97,2188.599,3177.97z M1820.681,3158.976h358.424v-359.468h-358.424V3158.976z"/>
				</g>
				<g style="opacity:0.3;">
					<path style="fill:#000072;" d="M2188.599,2789.997v30.336h-312.646c-17.863,0-32.344,14.481-32.344,32.344v315.779h-32.424
						v-378.458H2188.599z"/>
				</g>
				<g>
					<path style="fill:#000072;" d="M1999.892,3175.592c-3.933,0-7.122-3.188-7.122-7.119v-378.462c0-3.931,3.188-7.119,7.122-7.119
						s7.122,3.188,7.122,7.119v378.462C2007.014,3172.404,2003.825,3175.592,1999.892,3175.592z"/>
				</g>
				<g>
					<path style="fill:#000072;" d="M2059.234,3025.26L2059.234,3025.26c-7.429,0-13.451-6.022-13.451-13.451v-56.177
						c0-7.429,6.022-13.451,13.451-13.451l0,0c7.428,0,13.451,6.022,13.451,13.451v56.177
						C2072.685,3019.238,2066.663,3025.26,2059.234,3025.26z"/>
				</g>
				<g>
					<path style="fill:#000072;" d="M1940.551,3025.26L1940.551,3025.26c-7.429,0-13.451-6.022-13.451-13.451v-56.177
						c0-7.429,6.022-13.451,13.451-13.451h0c7.429,0,13.451,6.022,13.451,13.451v56.177
						C1954.001,3019.238,1947.979,3025.26,1940.551,3025.26z"/>
				</g>
				<g>
					
						<ellipse transform="matrix(0.7071 -0.7071 0.7071 0.7071 -1239.3796 2170.1328)" style="fill:#FFFFFF;" cx="1999.892" cy="2581.13" rx="94.664" ry="94.664"/>
					<path style="fill:#000072;" d="M1999.892,2678.165c-53.506,0-97.037-43.53-97.037-97.036s43.531-97.036,97.037-97.036
						c53.507,0,97.039,43.53,97.039,97.036S2053.399,2678.165,1999.892,2678.165z M1999.892,2488.839
						c-50.889,0-92.289,41.401-92.289,92.29c0,50.888,41.4,92.29,92.289,92.29s92.291-41.402,92.291-92.29
						C2092.183,2530.24,2050.781,2488.839,1999.892,2488.839z"/>
				</g>
				<g>
					<rect x="2051.482" y="1597.299" style="fill:#12B3F9;" width="86.962" height="86.962"/>
				</g>
				<g style="opacity:0.55;">
					<rect x="2051.495" y="1597.323" style="fill:#FFFFFF;" width="86.972" height="22.74"/>
				</g>
				<g>
					<path style="fill:#000072;" d="M2138.444,1696.134h-86.963c-6.555,0-11.869-5.317-11.869-11.87v-86.963
						c0-6.553,5.314-11.87,11.869-11.87h86.963c6.555,0,11.869,5.317,11.869,11.87v86.963
						C2150.313,1690.817,2145,1696.134,2138.444,1696.134z M2063.35,1672.394h63.225v-63.223h-63.225V1672.394z"/>
				</g>
				<g style="opacity:0.3;">
					<path style="fill:#000072;" d="M2111.554,2639.169c-14.279,50.28-66.642,79.479-116.922,65.2
						c-32.241-9.156-55.828-34.016-64.809-63.907c10.448,9.432,23.143,16.689,37.574,20.788
						c50.28,14.279,102.63-14.874,116.922-65.2c5.123-18.039,4.644-36.336-0.391-53.015
						C2109.808,2566.424,2121.735,2603.32,2111.554,2639.169z"/>
				</g>
				<g style="opacity:0.3;">
					<path style="fill:#000072;" d="M2084.205,2538.104c-17.138-17.043-40.732-27.582-66.795-27.582
						c-52.316,0-94.662,42.394-94.662,94.662c0,15.476,3.702,30.098,10.349,43.011c-17.233-17.138-27.867-40.875-27.867-67.08
						c0-52.268,42.394-94.662,94.662-94.662C2036.684,2486.452,2068.586,2507.436,2084.205,2538.104z"/>
				</g>
				<g>
					<path style="fill:#000072;" d="M1999.892,2687.662c-58.741,0-106.532-47.793-106.532-106.533s47.791-106.533,106.532-106.533
						c58.743,0,106.533,47.793,106.533,106.533S2058.635,2687.662,1999.892,2687.662z M1999.892,2498.336
						c-45.653,0-82.794,37.139-82.794,82.793s37.141,82.793,82.794,82.793c45.654,0,82.795-37.139,82.795-82.793
						S2045.546,2498.336,1999.892,2498.336z"/>
				</g>
				<g>
					<path style="fill:#000072;" d="M1983.378,2611.446c-1.428,0-2.87-0.425-4.122-1.318c-3.204-2.28-3.954-6.724-1.673-9.932
						l15.188-21.343v-41.045c0-3.93,3.188-7.119,7.122-7.119s7.122,3.188,7.122,7.119v43.321c0,1.479-0.461,2.925-1.32,4.131
						l-16.507,23.198C1987.797,2610.406,1985.605,2611.446,1983.378,2611.446z"/>
				</g>
				<g>
					<g>
						<path style="fill:#99A9B5;" d="M2551.531,2739.545l-541.885-367.084c-5.891-3.99-13.618-3.99-19.508,0l-541.885,367.084
							c-7.952,5.387-18.765,3.307-24.153-4.644l-25.757-38.018c-5.388-7.952-3.308-18.767,4.644-24.154l587.15-397.746
							c5.891-3.99,13.618-3.99,19.508,0l587.15,397.746c7.953,5.387,10.032,16.201,4.644,24.154l-25.757,38.018
							C2570.296,2742.853,2559.483,2744.932,2551.531,2739.545z"/>
						<path style="fill:#000072;" d="M2561.254,2744.908c-3.813,0-7.666-1.099-11.055-3.398l-541.885-367.085
							c-5.115-3.457-11.728-3.457-16.846,0l-541.884,367.085c-9.023,6.108-21.337,3.74-27.45-5.273l-25.757-38.022
							c-2.961-4.37-4.043-9.634-3.046-14.819c0.996-5.186,3.954-9.668,8.325-12.632l587.148-397.744
							c6.733-4.565,15.437-4.57,22.17-0.005l587.15,397.754c4.373,2.959,7.327,7.441,8.325,12.627
							c0.996,5.185-0.085,10.449-3.047,14.819l-25.757,38.022C2573.833,2741.866,2567.597,2744.908,2561.254,2744.908z
							 M2552.861,2737.584c6.858,4.644,16.213,2.842,20.857-4.013l25.757-38.022c2.251-3.32,3.071-7.314,2.314-11.255
							s-3.003-7.349-6.323-9.6l-587.151-397.749c-5.115-3.457-11.728-3.457-16.846,0l-587.149,397.749
							c-3.323,2.251-5.569,5.659-6.326,9.6c-0.758,3.94,0.063,7.935,2.314,11.255l25.757,38.022
							c4.645,6.855,13.999,8.662,20.857,4.009l541.884-367.08c6.733-4.566,15.437-4.57,22.17-0.005L2552.861,2737.584z"/>
					</g>
				</g>
				<g style="opacity:0.55;">
					<g>
						<path style="fill:#FFFFFF;" d="M2601.625,2694.133l-6.504,9.589l-585.299-396.498c-5.887-3.988-13.577-3.988-19.464,0
							l-585.3,396.498l-6.504-9.589c-5.412-7.976-3.323-18.8,4.652-24.164l587.151-397.732c5.887-4.035,13.577-4.035,19.464,0
							l587.151,397.732C2604.948,2675.333,2607.037,2686.157,2601.625,2694.133z"/>
					</g>
				</g>
				<g>
					<g>
						<path style="fill:#000072;" d="M2561.237,2756.774c-6.106,0-12.271-1.763-17.693-5.435h-0.002l-541.884-367.085
							c-1.072-0.728-2.461-0.718-3.533,0l-541.885,367.085c-14.435,9.78-34.146,5.991-43.929-8.447l-25.758-38.022
							c-4.74-6.992-6.472-15.415-4.875-23.716c1.596-8.296,6.328-15.479,13.325-20.215l587.147-397.749
							c10.78-7.295,24.705-7.295,35.482,0l587.152,397.749c6.995,4.736,11.726,11.919,13.323,20.215
							c1.594,8.301-0.137,16.724-4.878,23.721l-25.754,38.018C2581.367,2751.906,2571.386,2756.774,2561.237,2756.774z
							 M2559.516,2727.755c1.438,0.972,3.398,0.601,4.377-0.84l25.754-38.023c0.605-0.893,0.598-1.777,0.486-2.358
							c-0.112-0.586-0.432-1.406-1.323-2.011l-587.152-397.749c-1.072-0.718-2.461-0.718-3.533,0l-587.149,397.749
							c-0.895,0.605-1.216,1.426-1.328,2.011c-0.112,0.586-0.12,1.465,0.485,2.354l25.758,38.028
							c0.972,1.435,2.936,1.806,4.376,0.84l541.884-367.085c10.778-7.295,24.703-7.295,35.481,0l541.886,367.085H2559.516z"/>
					</g>
				</g>
				<g>
					<path style="fill:#000072;" d="M2000.052,1718.312c-7.866,0-14.242-6.377-14.242-14.243v-171.45
						c0-7.866,6.376-14.243,14.242-14.243s14.242,6.377,14.242,14.243v171.45
						C2014.294,1711.935,2007.918,1718.312,2000.052,1718.312z"/>
				</g>
				<g>
					<rect x="2000.052" y="1561.694" style="fill:#12B3F9;" width="86.962" height="86.962"/>
				</g>
				<g style="opacity:0.55;">
					<rect x="2000.034" y="1561.718" style="fill:#FFFFFF;" width="86.971" height="22.74"/>
				</g>
				<g>
					
						<ellipse transform="matrix(0.7071 -0.7071 0.7071 0.7071 -497.922 1863.1434)" style="fill:#000072;" cx="2000.052" cy="1532.617" rx="29.077" ry="29.077"/>
				</g>
				<g>
					<path style="fill:#000072;" d="M2087.015,1660.528h-86.963c-6.555,0-11.869-5.317-11.869-11.87v-86.963
						c0-6.553,5.314-11.87,11.869-11.87h86.963c6.555,0,11.869,5.317,11.869,11.87v86.963
						C2098.884,1655.211,2093.57,1660.528,2087.015,1660.528z M2011.921,1636.788h63.225v-63.223h-63.225V1636.788z"/>
				</g>
			</g>
		</g>
		<g>
			<path style="fill:#000072;" d="M3594.315,3259.589c-66.43,8.601-132.859,10.662-199.29,11.719
				c-33.215,0.581-66.43,0.696-99.645,0.544c-33.215,0.044-66.43-0.352-99.645-0.632c-66.43-0.505-132.859-0.635-199.29-0.554
				h-199.289H2000h-797.158H804.264l-99.645,0.032l-49.822,0.398l-49.822,0.688c-66.43,0.195-132.86-0.303-199.289-12.195
				c-3.059-0.547-5.095-3.472-4.547-6.531c0.426-2.378,2.301-4.138,4.547-4.546c66.43-11.892,132.859-12.39,199.289-12.195
				l49.822,0.688l49.822,0.398l99.645,0.032h398.579H2000h797.158h199.289c66.43,0.081,132.86-0.049,199.29-0.554
				c33.215-0.281,66.43-0.676,99.645-0.635c33.215-0.149,66.43-0.034,99.645,0.547c66.43,1.057,132.86,3.115,199.29,11.719
				c3.059,0.396,5.218,3.196,4.822,6.255C3598.804,3257.338,3596.769,3259.271,3594.315,3259.589z"/>
		</g>
		<g style="opacity:0.3;">
			<path style="fill:#000072;" d="M3763.637,3280.254c0,34.368-789.597,62.286-1763.611,62.286
				c-974.065,0-1763.663-27.918-1763.663-62.286c0-9.336,58.43-18.221,163.066-26.204h3201.142
				C3705.208,3262.033,3763.637,3270.918,3763.637,3280.254z"/>
		</g>
		<g>
			<g>
				<path style="fill:#FF791F;" d="M2871.039,3017.812h-197.452c-13.916,0-25.196-11.281-25.196-25.196v-197.452
					c0-13.916,11.281-25.196,25.196-25.196h197.452c13.916,0,25.196,11.281,25.196,25.196v197.452
					C2896.235,3006.531,2884.954,3017.812,2871.039,3017.812z"/>
				<path style="fill:#000072;" d="M2871.04,3020.187h-197.454c-15.203,0-27.568-12.368-27.568-27.568v-197.456
					c0-15.2,12.366-27.568,27.568-27.568h197.454c15.203,0,27.568,12.368,27.568,27.568v197.456
					C2898.608,3007.819,2886.242,3020.187,2871.04,3020.187z M2673.586,2772.34c-12.583,0-22.822,10.239-22.822,22.822v197.456
					c0,12.583,10.239,22.822,22.822,22.822h197.454c12.583,0,22.822-10.239,22.822-22.822v-197.456
					c0-12.583-10.239-22.822-22.822-22.822H2673.586z"/>
			</g>
			<g style="opacity:0.55;">
				<path style="fill:#FFFFFF;" d="M2895.048,2787.481h-210.45c-9.684,0-17.517,7.833-17.517,17.518v211.921
					c-10.776-2.801-18.704-12.628-18.704-24.306v-197.442c0-13.91,11.298-25.208,25.208-25.208h197.442
					C2882.278,2769.964,2891.773,2777.322,2895.048,2787.481z"/>
			</g>
			<g>
				<path style="fill:#000072;" d="M2871.04,3029.684h-197.454c-20.437,0-37.063-16.631-37.063-37.065v-197.456
					c0-20.435,16.626-37.066,37.063-37.066h197.454c20.437,0,37.063,16.631,37.063,37.066v197.456
					C2908.103,3013.053,2891.477,3029.684,2871.04,3029.684z M2673.586,2781.837c-7.349,0-13.328,5.977-13.328,13.325v197.456
					c0,7.348,5.979,13.325,13.328,13.325h197.454c7.349,0,13.328-5.977,13.328-13.325v-197.456c0-7.349-5.979-13.325-13.328-13.325
					H2673.586z"/>
			</g>
			<g>
				
					<rect x="2691.115" y="2812.694" transform="matrix(-1.836970e-16 1 -1 -1.836970e-16 5666.2026 121.5774)" style="fill:#40E6FF;" width="162.395" height="162.392"/>
				<path style="fill:#000072;" d="M2855.881,2977.462h-167.139v-167.144h167.139V2977.462z M2693.488,2972.716h157.646v-157.651
					h-157.646V2972.716z"/>
			</g>
			<g style="opacity:0.55;">
				<path style="fill:#FFFFFF;" d="M2872.498,2844.354v134.635c0,7.691-6.219,13.91-13.862,13.91h-134.635
					c-7.691,0-13.909-6.219-13.909-13.91v-3.893h143.417v-144.604h5.127C2866.279,2830.492,2872.498,2836.711,2872.498,2844.354z"/>
			</g>
			<g>
				<path style="fill:#000072;" d="M2853.508,2982.208h-162.393c-3.933,0-7.122-3.188-7.122-7.119v-162.397
					c0-3.931,3.188-7.119,7.122-7.119h162.393c3.933,0,7.122,3.188,7.122,7.119v162.397
					C2860.629,2979.02,2857.441,2982.208,2853.508,2982.208z M2698.237,2967.97h148.149v-148.159h-148.149V2967.97z"/>
			</g>
			<g>
				<path style="fill:#000072;" d="M2772.312,2982.208c-3.933,0-7.122-3.188-7.122-7.119v-162.397c0-3.931,3.188-7.119,7.122-7.119
					s7.122,3.188,7.122,7.119v162.397C2779.433,2979.02,2776.245,2982.208,2772.312,2982.208z"/>
			</g>
			<g>
				<path style="fill:#000072;" d="M2853.51,2901.007h-162.395c-3.933,0-7.122-3.188-7.122-7.119c0-3.93,3.188-7.119,7.122-7.119
					h162.395c3.933,0,7.122,3.188,7.122,7.119C2860.632,2897.819,2857.443,2901.007,2853.51,2901.007z"/>
			</g>
			<g>
				<path style="fill:#40A3DB;" d="M2902.797,3068.777h-278.976c-14.073,0-25.482-11.409-25.482-25.482l0,0
					c0-14.073,11.409-25.482,25.482-25.482h278.976c14.073,0,25.482,11.409,25.482,25.482l0,0
					C2928.279,3057.368,2916.871,3068.777,2902.797,3068.777z"/>
				<path style="fill:#000072;" d="M2902.797,3071.149h-278.975c-15.361,0-27.856-12.495-27.856-27.852
					c0-15.361,12.495-27.856,27.856-27.856h278.975c15.359,0,27.854,12.495,27.854,27.856
					C2930.651,3058.654,2918.156,3071.149,2902.797,3071.149z M2623.823,3020.187c-12.742,0-23.11,10.366-23.11,23.11
					c0,12.739,10.369,23.105,23.11,23.105h278.975c12.742,0,23.108-10.366,23.108-23.105c0-12.744-10.366-23.11-23.108-23.11
					H2623.823z"/>
			</g>
			<g>
				<path style="fill:#99A9B5;" d="M2911.8,3068.777h-278.976c-14.073,0-25.482-11.409-25.482-25.482l0,0
					c0-14.073,11.409-25.482,25.482-25.482H2911.8c14.073,0,25.482,11.409,25.482,25.482l0,0
					C2937.283,3057.368,2925.874,3068.777,2911.8,3068.777z"/>
				<path style="fill:#000072;" d="M2911.801,3071.149h-278.977c-15.359,0-27.854-12.495-27.854-27.852
					c0-15.361,12.495-27.856,27.854-27.856h278.977c15.359,0,27.854,12.495,27.854,27.856
					C2939.655,3058.654,2927.16,3071.149,2911.801,3071.149z M2632.824,3020.187c-12.742,0-23.108,10.366-23.108,23.11
					c0,12.739,10.366,23.105,23.108,23.105h278.977c12.742,0,23.108-10.366,23.108-23.105c0-12.744-10.366-23.11-23.108-23.11
					H2632.824z"/>
			</g>
			<g style="opacity:0.55;">
				<path style="fill:#FFFFFF;" d="M2937.3,3043.315c0,3.181-0.57,6.267-1.709,9.068c-3.656-9.59-12.96-16.378-23.784-16.378
					h-279.001c-7.026,0-13.388,2.848-17.992,7.454c-2.516,2.516-4.462,5.554-5.744,8.925c-1.139-2.801-1.709-5.887-1.709-9.068
					c0-7.073,2.848-13.435,7.453-18.04c4.605-4.605,10.967-7.453,17.992-7.453h279.001
					C2925.858,3017.822,2937.3,3029.216,2937.3,3043.315z"/>
			</g>
			<g>
				<path style="fill:#000072;" d="M2911.801,3080.646h-278.977c-20.593,0-37.349-16.758-37.349-37.349
					c0-20.596,16.755-37.354,37.349-37.354h278.977c20.593,0,37.349,16.758,37.349,37.354
					C2949.15,3063.888,2932.395,3080.646,2911.801,3080.646z M2632.824,3029.684c-7.505,0-13.613,6.104-13.613,13.614
					c0,7.505,6.108,13.608,13.613,13.608h278.977c7.505,0,13.613-6.104,13.613-13.608c0-7.51-6.108-13.614-13.613-13.614H2632.824z"
					/>
			</g>
			<defs>
				<filter id="Adobe_OpacityMaskFilter" filterUnits="userSpaceOnUse" x="2626.71" y="3068.008" width="384.95" height="117.063">
					<feFlood  style="flood-color:white;flood-opacity:1" result="back"/>
					<feBlend  in="SourceGraphic" in2="back" mode="normal"/>
				</filter>
			</defs>
			<mask maskUnits="userSpaceOnUse" x="2626.71" y="3068.008" width="384.95" height="117.063" id="SVGID_1_">
				<g style="filter:url(#Adobe_OpacityMaskFilter);">
					<defs>
						
							<filter id="Adobe_OpacityMaskFilter_00000062882005859978972050000004051934060590404736_" filterUnits="userSpaceOnUse" x="2626.71" y="3068.008" width="384.95" height="117.063">
							<feFlood  style="flood-color:white;flood-opacity:1" result="back"/>
							<feBlend  in="SourceGraphic" in2="back" mode="normal"/>
						</filter>
					</defs>
					<mask maskUnits="userSpaceOnUse" x="2626.71" y="3068.008" width="384.95" height="117.063" id="SVGID_1_">
						<g style="filter:url(#Adobe_OpacityMaskFilter_00000062882005859978972050000004051934060590404736_);">
						</g>
					</mask>
					
						<linearGradient id="SVGID_00000135690526291652804740000011470429011215494048_" gradientUnits="userSpaceOnUse" x1="2767.7009" y1="3007.1882" x2="2870.6702" y2="3245.8901">
						<stop  offset="0" style="stop-color:#FFFFFF"/>
						<stop  offset="1" style="stop-color:#000000"/>
					</linearGradient>
					<polygon style="mask:url(#SVGID_1_);fill:url(#SVGID_00000135690526291652804740000011470429011215494048_);" points="
						3011.661,3185.071 2710.092,3185.071 2626.71,3068.008 2928.279,3068.008 					"/>
				</g>
			</mask>
			
				<linearGradient id="SVGID_00000093152831448076100830000004513813767147930025_" gradientUnits="userSpaceOnUse" x1="2767.7009" y1="3007.1882" x2="2870.6702" y2="3245.8901">
				<stop  offset="0" style="stop-color:#000072"/>
				<stop  offset="1" style="stop-color:#25A9E0"/>
			</linearGradient>
			<polygon style="opacity:0.3;fill:url(#SVGID_00000093152831448076100830000004513813767147930025_);" points="3011.661,3185.071 
				2710.092,3185.071 2626.71,3068.008 2928.279,3068.008 			"/>
		</g>
		<g>
			<g>
				<path style="fill:#FFFFFF;" d="M2804.232,1285.712c-13.934-4.704-28.893-7.178-44.396-7.178
					c-78.294,0-141.751,63.457-141.751,141.75c0,14.355,2.112,28.169,6.093,41.199h199.356h71.961h222.096h63.456h26.063
					c-75.021-114.863-165.961-218.367-269.738-307.356C2874.888,1174.513,2825.324,1223.529,2804.232,1285.712z"/>
			</g>
			<g>
				<path style="fill:#FFFFFF;" d="M908.892,1686.483h65.355h181.055c3.615-11.833,5.533-24.377,5.533-37.417
					c0-71.106-57.631-128.738-128.738-128.738c-14.079,0-27.665,2.246-40.32,6.521c-22.963-67.705-83.084-118.225-156.039-127.356
					c-64.676,88.562-119.564,184.726-162.907,286.99h34.354H908.892z"/>
			</g>
		</g>
		<g>
			<g>
				<path style="fill:#FF791F;" d="M1310.492,3017.812H1113.04c-13.916,0-25.196-11.281-25.196-25.196v-197.452
					c0-13.916,11.281-25.196,25.196-25.196h197.452c13.916,0,25.196,11.281,25.196,25.196v197.452
					C1335.688,3006.531,1324.407,3017.812,1310.492,3017.812z"/>
				<path style="fill:#000072;" d="M1310.491,3020.187h-197.452c-15.201,0-27.57-12.368-27.57-27.568v-197.456
					c0-15.2,12.368-27.568,27.57-27.568h197.452c15.203,0,27.571,12.368,27.571,27.568v197.456
					C1338.062,3007.819,1325.694,3020.187,1310.491,3020.187z M1113.039,2772.34c-12.584,0-22.821,10.239-22.821,22.822v197.456
					c0,12.583,10.237,22.822,22.821,22.822h197.452c12.584,0,22.822-10.239,22.822-22.822v-197.456
					c0-12.583-10.238-22.822-22.822-22.822H1113.039z"/>
			</g>
			<g style="opacity:0.55;">
				<path style="fill:#FFFFFF;" d="M1334.501,2787.481h-210.45c-9.684,0-17.517,7.833-17.517,17.518v211.921
					c-10.777-2.801-18.704-12.628-18.704-24.306v-197.442c0-13.91,11.298-25.208,25.208-25.208h197.442
					C1321.731,2769.964,1331.226,2777.322,1334.501,2787.481z"/>
			</g>
			<g>
				<path style="fill:#000072;" d="M1310.491,3029.684h-197.452c-20.437,0-37.064-16.631-37.064-37.065v-197.456
					c0-20.435,16.627-37.066,37.064-37.066h197.452c20.438,0,37.065,16.631,37.065,37.066v197.456
					C1347.557,3013.053,1330.93,3029.684,1310.491,3029.684z M1113.039,2781.837c-7.349,0-13.326,5.977-13.326,13.325v197.456
					c0,7.348,5.978,13.325,13.326,13.325h197.452c7.349,0,13.328-5.977,13.328-13.325v-197.456c0-7.349-5.979-13.325-13.328-13.325
					H1113.039z"/>
			</g>
			<g>
				
					<rect x="1130.568" y="2812.694" transform="matrix(-1.836970e-16 1 -1 -1.836970e-16 4105.6558 1682.1241)" style="fill:#40E6FF;" width="162.395" height="162.393"/>
				<path style="fill:#000072;" d="M1295.337,2977.462h-167.141v-167.144h167.141V2977.462z M1132.944,2972.716h157.644v-157.651
					h-157.644V2972.716z"/>
			</g>
			<g style="opacity:0.55;">
				<path style="fill:#FFFFFF;" d="M1311.951,2844.354v134.635c0,7.691-6.219,13.91-13.862,13.91h-134.635
					c-7.691,0-13.909-6.219-13.909-13.91v-3.893h143.417v-144.604h5.127C1305.732,2830.492,1311.951,2836.711,1311.951,2844.354z"/>
			</g>
			<g>
				<path style="fill:#000072;" d="M1292.962,2982.208H1130.57c-3.933,0-7.122-3.188-7.122-7.119v-162.397
					c0-3.931,3.188-7.119,7.122-7.119h162.393c3.933,0,7.122,3.188,7.122,7.119v162.397
					C1300.084,2979.02,1296.895,2982.208,1292.962,2982.208z M1137.691,2967.97h148.149v-148.159h-148.149V2967.97z"/>
			</g>
			<g>
				<path style="fill:#000072;" d="M1211.766,2982.208c-3.933,0-7.122-3.188-7.122-7.119v-162.397c0-3.931,3.188-7.119,7.122-7.119
					s7.122,3.188,7.122,7.119v162.397C1218.887,2979.02,1215.699,2982.208,1211.766,2982.208z"/>
			</g>
			<g>
				<path style="fill:#000072;" d="M1292.963,2901.007h-162.395c-3.933,0-7.122-3.188-7.122-7.119c0-3.93,3.188-7.119,7.122-7.119
					h162.395c3.933,0,7.122,3.188,7.122,7.119C1300.085,2897.819,1296.896,2901.007,1292.963,2901.007z"/>
			</g>
			<g>
				<path style="fill:#40A3DB;" d="M1342.25,3068.777h-278.975c-14.074,0-25.482-11.409-25.482-25.482l0,0
					c0-14.073,11.409-25.482,25.482-25.482h278.975c14.074,0,25.482,11.409,25.482,25.482l0,0
					C1367.733,3057.368,1356.324,3068.777,1342.25,3068.777z"/>
				<path style="fill:#000072;" d="M1342.25,3071.149h-278.976c-15.36,0-27.855-12.495-27.855-27.852
					c0-15.361,12.495-27.856,27.855-27.856h278.976c15.36,0,27.857,12.495,27.857,27.856
					C1370.107,3058.654,1357.611,3071.149,1342.25,3071.149z M1063.275,3020.187c-12.742,0-23.109,10.366-23.109,23.11
					c0,12.739,10.367,23.105,23.109,23.105h278.976c12.742,0,23.108-10.366,23.108-23.105c0-12.744-10.366-23.11-23.108-23.11
					H1063.275z"/>
			</g>
			<g>
				<path style="fill:#99A9B5;" d="M1351.254,3068.777h-278.975c-14.073,0-25.482-11.409-25.482-25.482l0,0
					c0-14.073,11.409-25.482,25.482-25.482h278.975c14.074,0,25.482,11.409,25.482,25.482l0,0
					C1376.736,3057.368,1365.327,3068.777,1351.254,3068.777z"/>
				<path style="fill:#000072;" d="M1351.253,3071.149h-278.975c-15.36,0-27.858-12.495-27.858-27.852
					c0-15.361,12.498-27.856,27.858-27.856h278.975c15.36,0,27.855,12.495,27.855,27.856
					C1379.108,3058.654,1366.613,3071.149,1351.253,3071.149z M1072.279,3020.187c-12.743,0-23.109,10.366-23.109,23.11
					c0,12.739,10.366,23.105,23.109,23.105h278.975c12.742,0,23.109-10.366,23.109-23.105c0-12.744-10.367-23.11-23.109-23.11
					H1072.279z"/>
			</g>
			<g style="opacity:0.55;">
				<path style="fill:#FFFFFF;" d="M1376.753,3043.315c0,3.181-0.57,6.267-1.709,9.068c-3.656-9.59-12.96-16.378-23.784-16.378
					h-279.001c-7.026,0-13.388,2.848-17.993,7.454c-2.516,2.516-4.462,5.554-5.744,8.925c-1.139-2.801-1.709-5.887-1.709-9.068
					c0-7.073,2.848-13.435,7.453-18.04c4.605-4.605,10.967-7.453,17.993-7.453h279.001
					C1365.312,3017.822,1376.753,3029.216,1376.753,3043.315z"/>
			</g>
			<g>
				<path style="fill:#000072;" d="M1351.253,3080.646h-278.975c-20.596,0-37.352-16.758-37.352-37.349
					c0-20.596,16.757-37.354,37.352-37.354h278.975c20.596,0,37.351,16.758,37.351,37.354
					C1388.604,3063.888,1371.849,3080.646,1351.253,3080.646z M1072.279,3029.684c-7.507,0-13.615,6.104-13.615,13.614
					c0,7.505,6.107,13.608,13.615,13.608h278.975c7.506,0,13.613-6.104,13.613-13.608c0-7.51-6.107-13.614-13.613-13.614H1072.279z"
					/>
			</g>
			<defs>
				
					<filter id="Adobe_OpacityMaskFilter_00000021097622638253717860000008625579802818068354_" filterUnits="userSpaceOnUse" x="1066.164" y="3068.008" width="384.95" height="117.063">
					<feFlood  style="flood-color:white;flood-opacity:1" result="back"/>
					<feBlend  in="SourceGraphic" in2="back" mode="normal"/>
				</filter>
			</defs>
			
				<mask maskUnits="userSpaceOnUse" x="1066.164" y="3068.008" width="384.95" height="117.063" id="SVGID_00000129193319542098435050000001518663584375785349_">
				<g style="filter:url(#Adobe_OpacityMaskFilter_00000021097622638253717860000008625579802818068354_);">
					<defs>
						
							<filter id="Adobe_OpacityMaskFilter_00000060002070628613205790000009809703550242514326_" filterUnits="userSpaceOnUse" x="1066.164" y="3068.008" width="384.95" height="117.063">
							<feFlood  style="flood-color:white;flood-opacity:1" result="back"/>
							<feBlend  in="SourceGraphic" in2="back" mode="normal"/>
						</filter>
					</defs>
					
						<mask maskUnits="userSpaceOnUse" x="1066.164" y="3068.008" width="384.95" height="117.063" id="SVGID_00000129193319542098435050000001518663584375785349_">
						<g style="filter:url(#Adobe_OpacityMaskFilter_00000060002070628613205790000009809703550242514326_);">
						</g>
					</mask>
					
						<linearGradient id="SVGID_00000054948168081863948190000015628666018193669028_" gradientUnits="userSpaceOnUse" x1="1207.1543" y1="3007.1882" x2="1310.1234" y2="3245.8901">
						<stop  offset="0" style="stop-color:#FFFFFF"/>
						<stop  offset="1" style="stop-color:#000000"/>
					</linearGradient>
					
						<polygon style="mask:url(#SVGID_00000129193319542098435050000001518663584375785349_);fill:url(#SVGID_00000054948168081863948190000015628666018193669028_);" points="
						1451.114,3185.071 1149.545,3185.071 1066.164,3068.008 1367.733,3068.008 					"/>
				</g>
			</mask>
			
				<linearGradient id="SVGID_00000057135265316199218410000010056377485960775083_" gradientUnits="userSpaceOnUse" x1="1207.1543" y1="3007.1882" x2="1310.1234" y2="3245.8901">
				<stop  offset="0" style="stop-color:#000072"/>
				<stop  offset="1" style="stop-color:#25A9E0"/>
			</linearGradient>
			<polygon style="opacity:0.3;fill:url(#SVGID_00000057135265316199218410000010056377485960775083_);" points="1451.114,3185.071 
				1149.545,3185.071 1066.164,3068.008 1367.733,3068.008 			"/>
		</g>
	</g>
</g>
</svg>
